<?xml version="1.0" encoding="utf-8"?>
<!-- Generator: Adobe Illustrator 23.0.2, SVG Export Plug-In . SVG Version: 6.00 Build 0)  -->
<svg version="1.1" id="Layer_1" xmlns="http://www.w3.org/2000/svg" xmlns:xlink="http://www.w3.org/1999/xlink" x="0px" y="0px"
	 viewBox="0 0 300 300" style="enable-background:new 0 0 300 300;" xml:space="preserve">
<style type="text/css">
	.st0{fill:#4E3C56;}
	.st1{display:none;fill:#475C69;}
	.st2{display:none;fill:#6D4A51;}
	.st3{display:none;fill:#735C74;}
	.st4{fill:none;}
	.st5{fill:#FFFFFF;}
</style>
<rect x="0.23" y="0.23" class="st0" width="300" height="300"/>
<rect x="0.23" y="0.23" class="st1" width="300" height="300"/>
<rect x="0.23" y="0.23" class="st2" width="300" height="300"/>
<rect x="0.23" y="0.23" class="st3" width="300" height="300"/>
<g>
	<rect x="77.23" y="228.14" class="st4" width="147" height="42.09"/>
	<path class="st5" d="M116.3,234.92l2.28-2.38c-0.25,5.26-0.45,9.13-0.55,13.04c-0.1,3.27-0.05,6.55-0.1,9.87
		c-0.05,2.93-0.2,5.85-0.25,8.78c0,1.29,0.15,2.58,0.2,3.92c0.05,3.17,0.15,6.35,0.1,9.57c0,0.69-0.84,1.98-1.88,1.98
		c-1.24-0.05-1.98-0.94-1.93-2.23c0.1-3.32,0.15-6.7,0.15-10.02c0-3.72-0.05-7.44-0.05-11.11c0-2.68,0-5.36,0.05-8.03
		c0.1-3.07,0.35-6.1,0.4-9.12c0.05-2.88-0.1-5.8-0.2-8.68c0-0.79,0.15-2.38,1.98-2.38c0.79,0,1.39,0.4,1.64,1.04
		c0.1,0.4,0.1,0.74,0.15,1.14c0.1,1.14,0.2,2.28,0.4,4.41L116.3,234.92z"/>
	<path class="st5" d="M134.69,277.86c-0.25-1.69-0.45-3.42-0.89-5.11c-0.79-3.17-1.74-6.35-2.58-9.47c-0.94-3.32-1.83-6.6-2.78-9.87
		c-0.1-0.3-0.2-0.6-0.3-0.84c0,1.24,0,2.48,0,3.72c0,2.23,0,4.46,0.05,6.7c0,0.99,0.2,1.98,0.2,2.97c0,1.54-0.2,3.08-0.15,4.66
		c0.05,2.23,0.25,4.41,0.45,6.65c0.05,0.2,0.05,0.4,0.05,0.59s0,0.45-0.1,0.69c-0.25,0.74-0.94,1.04-1.64,1.04
		c-1.44,0-2.13-0.89-2.13-2.23c0.05-2.63-0.05-5.26-0.15-7.93c-0.05-2.38-0.15-4.71-0.15-7.09c0-3.02,0.15-6,0.15-9.03
		c0-2.93-0.2-5.85-0.15-8.78c0-1.83,0.35-3.62,0.45-5.41c0.1-2.98,0.1-5.95,0.2-8.98c0-0.4,0.15-0.69,0.25-0.89
		c0.05-0.2,0.15-0.35,0.6-1.49c1.34,0.59,1.69,0.79,2.03,0.94c0.3,0.2,0.59,0.4,0.89,0.59c1.04,0.84,2.13,1.69,3.22,2.53
		c0.79,0.64,1.24,1.39,1.54,2.18c0.3,0.69,0.45,1.44,0.64,2.18c0.99,4.02-0.89,7.09-3.12,9.62c-0.2,0.25-0.45,0.4-0.6,0.5l-0.4,0.2
		c0.35,1.24,0.74,2.48,1.09,3.67c0.89,3.22,1.88,6.45,2.78,9.67c0.84,3.13,1.54,6.3,2.33,9.42c0.59,2.38,1.19,4.71,1.79,7.04
		c0.1,0.35,0.1,0.69,0.15,0.99c0.15,0.65,0.3,2.18-1.44,2.38C135.59,279.85,134.84,279,134.69,277.86z M128.3,243.35
		c1.24-0.99,2.53-2.93,2.63-4.26c0.25-2.83-0.74-4.46-2.23-5.6L128.3,243.35z"/>
	<path class="st5" d="M156.56,261.7c-0.2,2.78-0.35,5.5-0.69,8.23c-0.25,2.13-0.79,4.21-1.29,6.3c-0.35,1.54-1.29,3.08-3.22,3.42
		c-1.64,0.3-3.82-0.54-4.81-2.28c-0.45-0.74-0.74-1.64-0.89-2.43c-0.4-2.08-0.74-4.22-1.34-7.29h0.2c-0.25-1.54-0.55-3.03-0.64-4.56
		c-0.2-3.22-0.3-6.5-0.3-9.72c0-3.03,0.1-6.1,0.35-9.13c0.15-1.93,0.55-3.92,0.94-5.85c0.35-1.79,0.74-3.62,1.39-5.31
		c0.55-1.49,1.49-2.88,2.33-4.07c0.99-1.39,4.17-0.99,5.11-0.1c1.59,1.39,2.73,3.12,2.83,5.5c0.1,1.64,0.59,3.27,0.64,4.96
		c0.1,2.73,0,5.46,0,8.18c0,1.64,0,3.32-0.05,5.01C156.96,255.6,156.76,258.67,156.56,261.7z M151.75,232.34
		c-0.1-0.1-0.2-0.2-0.35-0.3c-0.1-0.1-0.25-0.25-0.35-0.45c-0.05-0.1,0,0.05-0.15,0.15c-1.34,1.24-1.83,2.98-2.18,4.86
		c-0.74,4.31-1.34,8.63-1.69,12.99c-0.25,3.67-0.1,7.34-0.1,10.96c0.6,3.92,1.14,7.79,1.74,11.65c0.2,1.14,0.45,2.23,0.94,3.07
		c0.15,0.25,0.65,0.65,1.24,0.79c-0.05-0.05-0.05-0.1-0.1-0.1c0.15-0.2,0.25-0.5,0.35-0.64c0.15-0.35,0.25-0.69,0.35-1.09
		c0.15-0.4,0.25-0.79,0.35-1.19c0.69-2.28,0.89-4.66,1.04-7.09c0.2-2.43,0.25-4.91,0.55-7.34c0.3-2.83,0.15-5.7,0.2-8.58
		c0.05-2.78,0.2-5.55,0.1-8.33c-0.05-2.18-0.54-4.36-0.69-6.55C152.94,233.93,152.59,233.03,151.75,232.34z"/>
	<path class="st5" d="M175.5,260.21c0-1.34-0.2-2.68-0.2-3.97c-0.05-2.93-0.05-5.85-0.05-8.78c-0.05-3.82,0-7.64,0.05-11.41
		c0-1.98,0.05-3.97,0.2-5.95c0.05-0.65,0.45-1.04,0.84-1.44c0.1-0.05,0.15-0.15,1.04-1.24c0.79,1.19,0.84,1.24,0.89,1.29
		c0.35,0.45,0.64,0.84,0.64,1.39c0,3.72-0.2,7.44-0.2,11.16c-0.05,3.82-0.05,7.64,0,11.41c0,2.53,0.2,5.06,0.25,7.59
		c0,2.38,0,4.81,0,7.24c0,3.22,0,6.45,0,9.67c0,1.79-1.09,2.68-2.33,2.53c-1.14-0.1-2.33-1.09-2.48-2.53
		c-0.3-2.68-0.54-5.41-0.99-8.08c-0.5-3.13-1.19-6.25-1.83-9.37c-0.25-1.04-0.64-2.08-0.89-3.12c-0.3-1.29-0.55-2.58-0.79-3.87
		c-0.69-3.27-1.34-6.5-2.13-9.72c-0.55-2.33-1.29-4.61-1.93-6.94c-0.15-0.45-0.35-0.89-0.54-1.29l0.89-0.45
		c0.3,0.59,0.4,1.24,0.45,1.93c0.05,0.69,0.05,1.39,0.05,2.13c0.05,1.93,0.05,3.87,0.1,5.85c0.05,0.99,0.1,1.98,0.1,2.98
		c0,3.77,0,7.54,0.05,11.26c0.05,2.73,0.3,5.41,0.4,8.13c0.1,3.22,0.15,6.5,0.3,9.72c0.05,1.39-0.79,2.23-2.03,2.23
		c-0.54,0-2.03-0.79-1.83-1.88c0.3-1.44,0.25-2.93,0.2-4.41c-0.1-1.54-0.25-3.08-0.25-4.56c-0.05-2.03-0.15-10.61-0.2-12.05
		c-0.1-3.22-0.05-6.4-0.05-9.62c0-1.59,0.1-3.17,0.05-4.76c0-1.24-0.25-2.43-0.3-3.62c-0.1-1.88-0.1-3.77-0.15-5.65
		c-0.05-0.15,0-0.5-0.05-0.64c-0.2-0.59-0.5-2.23,1.29-2.68c0.89-0.2,2.33-0.25,2.93,1.39c0.69,1.83,1.54,3.62,2.03,5.5
		c0.94,3.37,1.69,6.84,2.53,10.26c1.14,4.76,2.33,9.47,3.37,14.28c0.15,0.74,0.3,1.44,0.45,2.18
		C175.4,261.6,175.5,260.9,175.5,260.21z"/>
</g>
<g>
</g>
<g>
</g>
<g>
</g>
<g>
</g>
<g>
</g>
<g>
</g>
<g>
</g>
<g>
</g>
<g>
</g>
<g>
</g>
<g>
</g>
<g>
</g>
<g>
</g>
<g>
</g>
<g>
</g>
</svg>
