<?xml version="1.0" encoding="utf-8"?>
<!-- Generator: Adobe Illustrator 23.0.2, SVG Export Plug-In . SVG Version: 6.00 Build 0)  -->
<svg version="1.1" id="Layer_1" xmlns="http://www.w3.org/2000/svg" xmlns:xlink="http://www.w3.org/1999/xlink" x="0px" y="0px"
	 viewBox="0 0 300 300" style="enable-background:new 0 0 300 300;" xml:space="preserve">
<style type="text/css">
	.st0{fill:#4E3C56;}
	.st1{fill:#475C69;}
	.st2{fill:#6D4A51;}
	.st3{fill:#735C74;}
	.st4{fill:none;}
	.st5{fill:#FFFFFF;}
</style>
<rect x="0.23" y="0.23" class="st0" width="300" height="300"/>
<rect x="0.23" y="0.23" class="st1" width="300" height="300"/>
<rect x="0.23" y="0.23" class="st2" width="300" height="300"/>
<rect x="0.23" y="0.23" class="st3" width="300" height="300"/>
<g>
	<rect x="77.23" y="228.14" class="st4" width="147" height="42.09"/>
	<path class="st5" d="M124.45,277.07c-1.14,1.49-2.93,3.17-5.65,2.48c-0.84-0.25-1.34-0.79-2.03-1.29
		c-1.93-1.39-2.58-3.47-3.07-5.36c-0.25-0.99-0.3-2.03-0.55-3.03c-0.2-0.94,0.05-2.03,1.44-2.28c1.49-0.25,1.98,0.89,2.08,1.64
		c0.2,1.19,0.3,2.43,0.6,3.62c0.3,1.39,1.19,2.43,2.48,3.17c0.4,0.2,0.94,0.15,1.69-0.79c1.34-1.69,1.74-3.72,1.88-6.05
		c0.3-3.77,0.15-7.49-0.55-11.16c-0.15-0.69-0.4-1.44-0.74-2.18c-0.35-0.79-0.74-1.59-1.04-2.38c-0.84-2.08-2.48-3.82-3.82-5.55
		c-1.59-2.03-3.07-4.31-3.77-6.99c-0.15-0.55-0.1-1.09,0-1.59c0.1-0.45,0.2-0.94,0.25-1.39c0.3-1.93,0.5-3.97,0.94-5.85
		c0.3-1.09,0.84-2.63,1.93-3.47c1.04-0.79,2.93-0.5,3.82-0.05c2.18,0.99,3.07,2.98,3.22,5.16c0,0.1,0.05,0.3,0.15,0.54
		c0.1,0.3,0.2,0.64,0.25,0.94c0.1,0.5,0.1,1.04,0,1.49c-0.25,1.04-1.88,1.14-2.38,0.59c-0.3-0.4-0.45-0.79-0.6-1.24
		c-0.3-0.69-0.5-1.39-0.74-2.08c-0.2-0.65-0.45-1.29-0.74-1.83c-0.35-0.64-0.64-0.6-1.14,0.1c-0.5,0.6-0.74,1.29-0.89,2.08
		c-0.15,0.79-0.15,1.64-0.3,2.43c-0.15,1.09-0.25,2.18-0.3,3.27c-0.1,1.14,0.4,2.03,1.09,3.07c0.25,0.35,0.5,0.74,0.74,1.09
		c0.94,1.39,1.98,2.68,2.93,4.02c0.99,1.39,1.98,2.83,2.78,4.46c1.98,4.26,2.58,8.68,2.33,13.24c-0.1,1.54,0.05,3.12-0.1,4.61
		C126.39,272.66,126.04,275.09,124.45,277.07z"/>
	<path class="st5" d="M147.21,279.15c-0.2,0.15-0.4,0.25-1.39,0.94c-0.65-0.99-0.79-1.14-0.89-1.29c-0.15-0.15-0.4-0.5-0.45-0.99
		c-0.15-1.64-0.2-3.27-0.4-4.91c-0.3-2.98-0.69-5.95-1.09-8.88c0-0.05-0.1-0.05-0.15-0.1c-2.33-0.59-4.56-0.89-6.84-0.4
		c-0.05,0.79-0.15,1.64-0.2,2.48c-0.1,2.53-0.2,5.01-0.25,7.54c-0.05,1.24,0,2.48-0.05,3.77c-0.05,1.09-0.69,2.53-3.42,1.88
		c0-2.18-0.05-3.57,0-4.96c0.1-3.37,0.2-6.79,0.45-10.17c0.2-2.58,0.6-5.11,0.89-7.69c0.4-3.32,0.69-6.6,1.09-9.92
		c0.4-3.02,0.89-6.05,1.34-9.08c0.15-1.19,0.2-2.43,0.35-3.67c0.2-1.29,0.4-2.58,0.74-3.82c0.15-0.5,0.6-0.84,0.79-0.99
		s0.45-0.35,1.69-1.39c0.74,1.49,0.94,1.83,1.14,2.18c0.2,0.35,0.45,0.79,0.5,1.29c0.55,2.83,0.94,5.65,1.34,8.48
		c0.35,2.78,0.59,5.55,1.04,8.33c0.5,3.07,1.19,6.1,1.74,9.17c0.6,3.42,1.19,6.89,1.69,10.32c0.35,2.38,0.6,4.71,0.89,7.04
		c0.15,0.94,0.3,1.83,0.45,2.73c0,0.15,0.05,0.35,0.05,0.55c0,0.15,0,0.64-0.4,0.99C147.66,278.86,147.41,279.05,147.21,279.15z
		 M136.25,260.01l6.15,0.3c-1.69-7.19-2.13-14.58-3.42-21.82L136.25,260.01z"/>
	<path class="st5" d="M157.48,275.68c0.74-0.05,1.59-0.15,2.28-0.15c1.44,0,2.93,0.55,2.63,2.33c-0.25,1.54-5.7,1.98-7.34,1.59
		c-1.29-0.3-1.64-1.24-1.59-2.18c0.05-1.19,0.1-2.38,0.1-3.62c0.1-5.7,0.2-11.46,0.35-17.21c0.05-3.17,0.25-6.4,0.25-9.62
		c0-3.57-0.15-7.14-0.25-10.71c-0.05-1.88-0.15-3.77-0.1-5.65c0-0.59,0.15-2.08,1.64-2.33c1.04-0.15,1.54,0.6,1.74,1.14
		c0.15,0.35,0.15,0.74,0.15,1.14c0.1,4.61,0.15,9.22,0.2,13.84c0,3.62,0.1,7.24,0,10.86c-0.05,3.47-0.35,6.89-0.35,10.37
		c0,3.32,0.2,6.64,0.25,9.97c0,0.05,0.05,0.1,0.05,0.15V275.68z"/>
	<path class="st5" d="M169.88,231.64c-1.69-0.05-2.43-0.6-2.33-2.03c0.05-0.45,1.49-1.34,3.52-1.39c1.44-0.05,3.12,0,4.26,0
		s2.23,0,3.37-0.1c0.79-0.05,2.33,0.05,2.38,1.83c0.1,1.93-1.69,2.03-2.33,2.03c-0.84-0.05-1.64-0.05-2.43-0.1
		c0,4.61-0.05,9.13,0,13.64c0,2.78,0.15,5.55,0.25,8.28c0.1,2.33,0.25,4.61,0.3,6.94c0.1,4.31,0.05,8.68,0.1,12.99
		c0,1.34,0.15,2.63,0.1,3.92c-0.05,0.79-0.79,1.74-1.54,1.93c-1.44,0.45-2.33-0.69-2.33-1.88c0.05-1.59,0.05-3.17,0.05-4.71
		c0.05-4.31,0.1-8.58,0.05-12.89c-0.05-3.67-0.35-7.34-0.5-11.01c-0.1-2.08-0.2-4.22-0.2-6.3c0-2.88,0.1-5.8,0.1-8.73
		c0-0.74-0.1-1.54-0.25-2.33C171.61,231.64,170.77,231.64,169.88,231.64z"/>
</g>
<g>
</g>
<g>
</g>
<g>
</g>
<g>
</g>
<g>
</g>
<g>
</g>
<g>
</g>
<g>
</g>
<g>
</g>
<g>
</g>
<g>
</g>
<g>
</g>
<g>
</g>
<g>
</g>
<g>
</g>
</svg>
