<?xml version="1.0" encoding="utf-8"?>
<!-- Generator: Adobe Illustrator 23.0.2, SVG Export Plug-In . SVG Version: 6.00 Build 0)  -->
<svg version="1.1" id="Layer_1" xmlns="http://www.w3.org/2000/svg" xmlns:xlink="http://www.w3.org/1999/xlink" x="0px" y="0px"
	 viewBox="0 0 300 300" style="enable-background:new 0 0 300 300;" xml:space="preserve">
<style type="text/css">
	.st0{display:none;fill:#4E3C56;}
	.st1{display:none;fill:#475C69;}
	.st2{fill:#6D4A51;}
	.st3{fill:#735C74;}
	.st4{fill:none;}
	.st5{fill:#FFFFFF;}
	.st6{fill:#C1B49A;}
	.st7{fill:#A59B85;}
</style>
<rect x="0.23" y="0.23" class="st0" width="300" height="300"/>
<rect x="0.23" y="0.23" class="st1" width="300" height="300"/>
<rect x="0.23" y="0.23" class="st2" width="300" height="300"/>
<rect x="0.23" y="0.23" class="st3" width="300" height="300"/>
<g>
	<rect x="77.23" y="228.14" class="st4" width="147" height="42.09"/>
	<path class="st5" d="M121.13,260.53c-2.73,0-8.48-0.79-8.48-4.61c0-1.19,1.04-2.13,2.28-2.13c1.44,0,2.58,0.84,2.58,2.33
		c0,0.5-0.3,1.24-0.69,1.54c0.6,0.5,3.12,0.89,4.12,0.89c1.98,0,5.8-0.2,5.8-2.48c0-2.18-3.37-3.22-5.16-3.87
		c-3.77-1.34-8.13-2.48-8.13-7.39c0-4.51,4.66-5.41,8.08-5.41c3.12,0,7.79,1.24,7.79,4.71c0,1.24-0.84,2.03-2.08,2.03
		c-1.34,0-2.33-0.74-2.33-2.18c0-0.35,0.2-0.89,0.4-1.19c-0.3-0.59-1.79-1.39-3.57-1.39c-1.74,0-4.46,0.2-4.46,2.28
		s3.32,3.08,5.01,3.67c3.67,1.29,8.48,2.53,8.48,7.34C130.75,259.29,124.75,260.53,121.13,260.53z"/>
	<path class="st5" d="M154.26,260.53c-1.54,0-2.93-1.09-3.47-2.23c-0.1-0.3-0.35-0.4-0.59-0.4c-0.2,0-0.4,0.05-0.6,0.25
		c-1.69,1.74-3.27,2.38-5.75,2.38c-6.4,0-9.52-4.86-9.52-10.81c0-5.7,3.87-10.31,9.77-10.31c2.23,0,4.71,0.69,6.2,2.43l0.4-1.93
		h4.41v14.23c0,2.03,0.35,3.22,1.74,3.22c2.03,0,2.83-2.73,3.32-4.41l0.55,0.1C160.36,257.55,157.83,260.53,154.26,260.53z
		 M150.34,249.32c0-3.67-2.08-7.59-6.15-7.59c-3.97,0-4.86,4.36-4.86,7.49c0,3.72,1.24,8.48,5.85,8.48c3.27,0,5.16-2.88,5.16-5.9
		V249.32z"/>
	<path class="st5" d="M168.39,260.53c-2.88,0-4.12-2.13-4.12-6.1v-20.98c0-1.69-0.3-2.88-1.79-3.32l-2.53-0.74v-1.24h9.27v25.99
		c0,2.03,0.35,3.22,1.74,3.22c2.03,0,2.83-2.73,3.32-4.41l0.54,0.1C174.49,257.55,171.96,260.53,168.39,260.53z"/>
	<path class="st5" d="M182.72,260.53c-2.88,0-4.12-2.13-4.12-6.1v-12.25l-3.77-1.19v-1.09h0.99c1.54,0,3.42-0.45,4.17-1.44
		c0.84-1.14,1.04-2.18,1.14-3.67l0.2-3.02h2.23v8.13h5.11v2.28h-5.11v11.95c0,2.03,0.35,3.22,1.74,3.22c2.03,0,2.83-2.73,3.32-4.41
		l0.55,0.1C188.82,257.55,186.29,260.53,182.72,260.53z"/>
</g>
<path class="st6" d="M117.75,166.36c0,24.78,15.27,44.87,34.1,44.87c18.84,0,34.1-20.09,34.1-44.87c0-22.6-12.69-41.28-29.2-44.41
	L158,49.23c0-3.39-2.75-6.15-6.15-6.15c-3.4,0-6.15,2.75-6.15,6.15l1.25,72.72C130.44,125.08,117.75,143.76,117.75,166.36z"/>
<path class="st7" d="M125.67,166.07c0-19.53,11.72-35.35,26.18-35.35c14.45,0,26.17,15.83,26.17,35.35s-11.72,35.35-26.17,35.35
	C137.39,201.42,125.67,185.6,125.67,166.07z"/>
<g>
	<path class="st5" d="M145.84,149.45c-1.77,0.99-3.41,3.65-5.36,6.09c-1.95,2.43-0.73,9.25,0,12.17c0.73,2.92,0.49,6.33,3.9,9.49
		c3.41,3.17,4.27,4.87,7.3,4.87c3.37,0,5.79-3.56,7.25-5.75c1.46-2.19,4.19-7.44,3.21-11.07c-0.97-3.63-2.43-7.04-3.65-9.72
		c-1.22-2.68-3.41-5.11-5.6-6.09C150.71,148.48,147.39,148.59,145.84,149.45z"/>
	<g>
		
			<rect x="139.01" y="170.93" transform="matrix(0.8933 -0.4494 0.4494 0.8933 -62.136 80.9391)" class="st5" width="0.86" height="0.86"/>
		
			<rect x="139.96" y="168.67" transform="matrix(0.8934 -0.4493 0.4493 0.8934 -61.008 81.1026)" class="st5" width="0.86" height="0.86"/>
		
			<rect x="159.33" y="176.81" transform="matrix(0.8933 -0.4494 0.4494 0.8933 -62.6077 90.7015)" class="st5" width="0.86" height="0.86"/>
		
			<rect x="162.29" y="172.77" transform="matrix(0.643 -0.7659 0.7659 0.643 -74.5526 186.457)" class="st5" width="0.86" height="0.86"/>
		
			<rect x="161.32" y="174.8" transform="matrix(0.0318 -0.9995 0.9995 0.0318 -18.5394 331.3306)" class="st5" width="0.86" height="0.86"/>
		
			<rect x="163.9" y="175" transform="matrix(0.0322 -0.9995 0.9995 0.0322 -16.3085 333.6256)" class="st5" width="0.46" height="0.46"/>
		
			<rect x="160.84" y="173.57" transform="matrix(0.0322 -0.9995 0.9995 0.0322 -17.8392 329.1853)" class="st5" width="0.46" height="0.46"/>
		
			<rect x="161.76" y="171.71" transform="matrix(0.0322 -0.9995 0.9995 0.0322 -15.0891 328.302)" class="st5" width="0.46" height="0.46"/>
		
			<rect x="140.88" y="175.45" transform="matrix(0.0323 -0.9995 0.9995 0.0323 -39.0251 311.0544)" class="st5" width="0.46" height="0.46"/>
		
			<rect x="140.42" y="171.71" transform="matrix(0.0323 -0.9995 0.9995 0.0323 -35.7442 306.9693)" class="st5" width="0.46" height="0.46"/>
		
			<rect x="140.21" y="173.59" transform="matrix(0.608 -0.794 0.794 0.608 -83.0317 179.8883)" class="st5" width="0.86" height="0.86"/>
		
			<rect x="137.51" y="174.2" transform="matrix(0.608 -0.794 0.794 0.608 -84.5728 177.977)" class="st5" width="0.86" height="0.86"/>
		
			<rect x="140.73" y="178.32" transform="matrix(0.8933 -0.4494 0.4494 0.8933 -65.2739 82.5028)" class="st5" width="0.86" height="0.86"/>
		
			<rect x="141.69" y="176.06" transform="matrix(0.8934 -0.4493 0.4493 0.8934 -64.151 82.6782)" class="st5" width="0.86" height="0.86"/>
		
			<rect x="142.14" y="179.1" transform="matrix(0.0323 -0.9995 0.9995 0.0323 -41.4633 315.8472)" class="st5" width="0.46" height="0.46"/>
		
			<rect x="142.87" y="177.14" transform="matrix(0.6081 -0.7939 0.7939 0.6081 -84.8081 183.3619)" class="st5" width="0.86" height="0.86"/>
		
			<rect x="144.97" y="178.9" transform="matrix(0.8934 -0.4493 0.4493 0.8934 -65.0705 84.4443)" class="st5" width="0.86" height="0.86"/>
		
			<rect x="147.91" y="181.35" transform="matrix(0.0322 -0.9995 0.9995 0.0322 -38.1311 323.7887)" class="st5" width="0.46" height="0.46"/>
		
			<rect x="146.38" y="179.68" transform="matrix(0.0323 -0.9995 0.9995 0.0323 -37.9389 320.6457)" class="st5" width="0.46" height="0.46"/>
		
			<rect x="146.18" y="181.57" transform="matrix(0.608 -0.794 0.794 0.608 -87.0223 187.7492)" class="st5" width="0.86" height="0.86"/>
		
			<rect x="143.47" y="182.17" transform="matrix(0.608 -0.794 0.794 0.608 -88.5634 185.8379)" class="st5" width="0.86" height="0.86"/>
		
			<rect x="147.75" y="184.23" transform="matrix(0.8933 -0.4494 0.4494 0.8933 -67.1788 86.288)" class="st5" width="0.86" height="0.86"/>
		
			<rect x="148.71" y="181.97" transform="matrix(0.8934 -0.4493 0.4493 0.8934 -66.0488 86.4474)" class="st5" width="0.86" height="0.86"/>
		
			<rect x="149.16" y="185.01" transform="matrix(0.0322 -0.9995 0.9995 0.0322 -40.5695 328.5814)" class="st5" width="0.46" height="0.46"/>
		
			<rect x="149.89" y="183.05" transform="matrix(0.6081 -0.7939 0.7939 0.6081 -86.7443 191.2507)" class="st5" width="0.86" height="0.86"/>
		
			<rect x="156.59" y="179.94" transform="matrix(0.032 -0.9995 0.9995 0.032 -28.2721 331.1462)" class="st5" width="0.46" height="0.46"/>
		
			<rect x="156.44" y="182.81" transform="matrix(0.8933 -0.4494 0.4494 0.8933 -65.6159 90.0407)" class="st5" width="0.86" height="0.86"/>
		
			<rect x="157.39" y="180.55" transform="matrix(0.8934 -0.4493 0.4493 0.8934 -64.4876 90.2017)" class="st5" width="0.86" height="0.86"/>
		
			<rect x="157.85" y="183.59" transform="matrix(0.0322 -0.9995 0.9995 0.0322 -30.7475 335.8934)" class="st5" width="0.46" height="0.46"/>
		
			<rect x="158.58" y="181.63" transform="matrix(0.6081 -0.7939 0.7939 0.6081 -82.2155 197.5921)" class="st5" width="0.86" height="0.86"/>
		
			<rect x="160.87" y="177.14" transform="matrix(0.6081 -0.7939 0.7939 0.6081 -77.7505 197.6573)" class="st5" width="0.86" height="0.86"/>
		
			<rect x="157.52" y="178.33" transform="matrix(0.6081 -0.7939 0.7939 0.6081 -80.0056 195.4579)" class="st5" width="0.86" height="0.86"/>
		
			<rect x="163.09" y="169.75" transform="matrix(0.17 -0.9854 0.9854 0.17 -31.9805 302.3924)" class="st5" width="0.86" height="0.86"/>
		
			<rect x="138.61" y="169.25" transform="matrix(0.17 -0.9854 0.9854 0.17 -51.808 277.8557)" class="st5" width="0.86" height="0.86"/>
	</g>
</g>
<g>
</g>
<g>
</g>
<g>
</g>
<g>
</g>
<g>
</g>
<g>
</g>
<g>
</g>
<g>
</g>
<g>
</g>
<g>
</g>
<g>
</g>
<g>
</g>
<g>
</g>
<g>
</g>
<g>
</g>
</svg>
