<?xml version="1.0" encoding="utf-8"?>
<!-- Generator: Adobe Illustrator 23.0.2, SVG Export Plug-In . SVG Version: 6.00 Build 0)  -->
<svg version="1.1" id="Layer_1" xmlns="http://www.w3.org/2000/svg" xmlns:xlink="http://www.w3.org/1999/xlink" x="0px" y="0px"
	 viewBox="0 0 300 300" style="enable-background:new 0 0 300 300;" xml:space="preserve">
<style type="text/css">
	.st0{fill:#4E3C56;}
	.st1{fill:#475C69;}
	.st2{display:none;fill:#6D4A51;}
	.st3{display:none;fill:#735C74;}
	.st4{fill:none;}
	.st5{fill:#FFFFFF;}
</style>
<rect x="0.23" y="0.23" class="st0" width="300" height="300"/>
<rect x="0.23" y="0.23" class="st1" width="300" height="300"/>
<rect x="0.23" y="0.23" class="st2" width="300" height="300"/>
<rect x="0.23" y="0.23" class="st3" width="300" height="300"/>
<g>
	<rect x="77.23" y="228.14" class="st4" width="147" height="42.09"/>
	<path class="st5" d="M111.78,277.07c-1.14,1.49-2.93,3.17-5.65,2.48c-0.84-0.25-1.34-0.79-2.03-1.29
		c-1.93-1.39-2.58-3.47-3.07-5.36c-0.25-0.99-0.3-2.03-0.55-3.03c-0.2-0.94,0.05-2.03,1.44-2.28c1.49-0.25,1.98,0.89,2.08,1.64
		c0.2,1.19,0.3,2.43,0.6,3.62c0.3,1.39,1.19,2.43,2.48,3.17c0.4,0.2,0.94,0.15,1.69-0.79c1.34-1.69,1.74-3.72,1.88-6.05
		c0.3-3.77,0.15-7.49-0.55-11.16c-0.15-0.69-0.4-1.44-0.74-2.18c-0.35-0.79-0.74-1.59-1.04-2.38c-0.84-2.08-2.48-3.82-3.82-5.55
		c-1.59-2.03-3.07-4.31-3.77-6.99c-0.15-0.55-0.1-1.09,0-1.59c0.1-0.45,0.2-0.94,0.25-1.39c0.3-1.93,0.5-3.97,0.94-5.85
		c0.3-1.09,0.84-2.63,1.93-3.47c1.04-0.79,2.93-0.5,3.82-0.05c2.18,0.99,3.07,2.98,3.22,5.16c0,0.1,0.05,0.3,0.15,0.54
		c0.1,0.3,0.2,0.64,0.25,0.94c0.1,0.5,0.1,1.04,0,1.49c-0.25,1.04-1.88,1.14-2.38,0.59c-0.3-0.4-0.45-0.79-0.6-1.24
		c-0.3-0.69-0.5-1.39-0.74-2.08c-0.2-0.65-0.45-1.29-0.74-1.83c-0.35-0.64-0.64-0.6-1.14,0.1c-0.5,0.6-0.74,1.29-0.89,2.08
		c-0.15,0.79-0.15,1.64-0.3,2.43c-0.15,1.09-0.25,2.18-0.3,3.27c-0.1,1.14,0.4,2.03,1.09,3.07c0.25,0.35,0.5,0.74,0.74,1.09
		c0.94,1.39,1.98,2.68,2.93,4.02c0.99,1.39,1.98,2.83,2.78,4.46c1.98,4.26,2.58,8.68,2.33,13.24c-0.1,1.54,0.05,3.12-0.1,4.61
		C113.72,272.66,113.37,275.09,111.78,277.07z"/>
	<path class="st5" d="M121.55,234.92l2.28-2.38c-0.25,5.26-0.45,9.13-0.55,13.04c-0.1,3.27-0.05,6.55-0.1,9.87
		c-0.05,2.93-0.2,5.85-0.25,8.78c0,1.29,0.15,2.58,0.2,3.92c0.05,3.17,0.15,6.35,0.1,9.57c0,0.69-0.84,1.98-1.88,1.98
		c-1.24-0.05-1.98-0.94-1.93-2.23c0.1-3.32,0.15-6.7,0.15-10.02c0-3.72-0.05-7.44-0.05-11.11c0-2.68,0-5.36,0.05-8.03
		c0.1-3.07,0.35-6.1,0.4-9.12c0.05-2.88-0.1-5.8-0.2-8.68c0-0.79,0.15-2.38,1.98-2.38c0.79,0,1.39,0.4,1.64,1.04
		c0.1,0.4,0.1,0.74,0.15,1.14c0.1,1.14,0.2,2.28,0.4,4.41L121.55,234.92z"/>
	<path class="st5" d="M133.85,275.68c0.74-0.05,1.59-0.15,2.28-0.15c1.44,0,2.93,0.55,2.63,2.33c-0.25,1.54-5.7,1.98-7.34,1.59
		c-1.29-0.3-1.64-1.24-1.59-2.18c0.05-1.19,0.1-2.38,0.1-3.62c0.1-5.7,0.2-11.46,0.35-17.21c0.05-3.17,0.25-6.4,0.25-9.62
		c0-3.57-0.15-7.14-0.25-10.71c-0.05-1.88-0.15-3.77-0.1-5.65c0-0.59,0.15-2.08,1.64-2.33c1.04-0.15,1.54,0.6,1.74,1.14
		c0.15,0.35,0.15,0.74,0.15,1.14c0.1,4.61,0.15,9.22,0.2,13.84c0,3.62,0.1,7.24,0,10.86c-0.05,3.47-0.35,6.89-0.35,10.37
		c0,3.32,0.2,6.64,0.25,9.97c0,0.05,0.05,0.1,0.05,0.15V275.68z"/>
	<path class="st5" d="M155.77,229.21c0.2-0.74,0.84-1.04,1.54-1.09c0.79-0.05,1.49,0.35,1.69,1.14c0.05,0.25,0.05,0.5,0.05,0.65
		c0,0.1-0.05,0.2-0.05,0.3c-0.1,1.83-0.35,3.62-0.59,5.41c-0.59,4.66-1.29,9.32-1.88,13.94c-0.84,6.2-1.69,12.4-2.48,18.6
		c-0.4,3.07-0.74,6.2-1.04,9.32c-0.15,1.34-1.14,2.28-2.43,2.23c-1.44-0.05-1.79-1.24-1.88-2.28c-0.3-4.21-0.6-8.48-1.04-12.7
		c-0.35-3.17-0.89-6.35-1.24-9.57c-0.3-3.07-0.45-6.15-0.64-9.27c-0.05-0.4-0.05-0.84-0.1-1.29c-0.4-3.77-0.79-7.54-1.19-11.31
		c-0.1-0.94-0.4-1.88-0.55-2.83c-0.05-0.35,0.05-0.64,0.1-0.84c0-0.15,0.05-0.3,0.25-1.04c2.08-0.45,3.07,0.3,3.27,1.69
		c0.3,2.43,0.74,4.86,0.94,7.29c0.4,4.12,0.55,8.23,0.94,12.35c0.35,3.52,0.84,6.99,1.24,10.51c0.15,1.29,0.25,2.58,0.4,3.87
		l0.25-2.03c0.3-2.58,0.79-5.11,1.14-7.64c0.45-2.93,0.89-5.85,1.29-8.83c0.4-2.68,0.74-5.41,1.09-8.08c0.3-2.43,0.5-4.86,0.74-7.24
		c-0.05-0.3-0.05-0.59,0.1-0.89C155.67,229.46,155.72,229.31,155.77,229.21z"/>
	<path class="st5" d="M171.74,276.13c0.45,0.1,0.79,0.5,1.04,0.84c0.05,0.15,0.1,0.25,0.2,0.4c0,0.05,0.05,0.15,0.69,1.04
		c-0.99,0.64-1.14,0.79-1.29,0.89c-0.2,0.1-0.59,0.4-1.09,0.4c-0.94,0-1.93-0.15-2.88-0.25c-0.3-0.05-0.54-0.1-0.84-0.15
		c-0.64-0.05-1.14-0.1-1.49-0.2c-1.19-0.25-1.64-0.94-1.74-2.03c0-0.4,0-0.89,0.05-1.59c0.1-2.23,0.15-4.46,0.2-6.64
		c0.05-2.28,0.2-4.51,0.2-6.74c0.05-3.37-0.05-6.75,0.05-10.12c0.05-3.22,0.3-6.5,0.35-9.77c0.05-3.52-0.05-7.04-0.05-10.56
		c0-0.25-0.1-0.55-0.1-0.79c-0.05-0.45,0-0.99,0.3-1.39c0.55-0.59,1.44-1.19,2.33-1.24c1.79-0.15,3.62-0.05,5.41-0.1
		c0.59,0,2.18,0.1,2.23,1.83c0,1.39-0.99,2.08-2.18,2.08c-1.49,0-2.93,0-4.51,0v11.36c0.89-0.1,1.79-0.15,2.63-0.35
		c1.19-0.25,2.13,0.4,2.28,1.44c0.1,0.69-0.05,2.28-1.79,2.33c-1.09,0.05-2.18,0.15-3.27,0.15c-0.05,3.12-0.15,6.25-0.2,9.37
		c-0.1,4.96-0.15,9.92-0.25,14.88c0,1.44,0,2.88,0,4.31C169.31,275.53,170.6,275.83,171.74,276.13z"/>
	<path class="st5" d="M190.18,277.86c-0.25-1.69-0.45-3.42-0.89-5.11c-0.79-3.17-1.74-6.35-2.58-9.47c-0.94-3.32-1.83-6.6-2.78-9.87
		c-0.1-0.3-0.2-0.6-0.3-0.84c0,1.24,0,2.48,0,3.72c0,2.23,0,4.46,0.05,6.7c0,0.99,0.2,1.98,0.2,2.97c0,1.54-0.2,3.08-0.15,4.66
		c0.05,2.23,0.25,4.41,0.45,6.65c0.05,0.2,0.05,0.4,0.05,0.59s0,0.45-0.1,0.69c-0.25,0.74-0.94,1.04-1.64,1.04
		c-1.44,0-2.13-0.89-2.13-2.23c0.05-2.63-0.05-5.26-0.15-7.93c-0.05-2.38-0.15-4.71-0.15-7.09c0-3.02,0.15-6,0.15-9.03
		c0-2.93-0.2-5.85-0.15-8.78c0-1.83,0.35-3.62,0.45-5.41c0.1-2.98,0.1-5.95,0.2-8.98c0-0.4,0.15-0.69,0.25-0.89
		c0.05-0.2,0.15-0.35,0.6-1.49c1.34,0.59,1.69,0.79,2.03,0.94c0.3,0.2,0.59,0.4,0.89,0.59c1.04,0.84,2.13,1.69,3.22,2.53
		c0.79,0.64,1.24,1.39,1.54,2.18c0.3,0.69,0.45,1.44,0.64,2.18c0.99,4.02-0.89,7.09-3.12,9.62c-0.2,0.25-0.45,0.4-0.6,0.5l-0.4,0.2
		c0.35,1.24,0.74,2.48,1.09,3.67c0.89,3.22,1.88,6.45,2.78,9.67c0.84,3.13,1.54,6.3,2.33,9.42c0.59,2.38,1.19,4.71,1.79,7.04
		c0.1,0.35,0.1,0.69,0.15,0.99c0.15,0.65,0.3,2.18-1.44,2.38C191.08,279.85,190.33,279,190.18,277.86z M183.79,243.35
		c1.24-0.99,2.53-2.93,2.63-4.26c0.25-2.83-0.74-4.46-2.23-5.6L183.79,243.35z"/>
</g>
<g>
</g>
<g>
</g>
<g>
</g>
<g>
</g>
<g>
</g>
<g>
</g>
<g>
</g>
<g>
</g>
<g>
</g>
<g>
</g>
<g>
</g>
<g>
</g>
<g>
</g>
<g>
</g>
<g>
</g>
</svg>
