<?xml version="1.0" encoding="utf-8"?>
<!-- Generator: Adobe Illustrator 23.0.2, SVG Export Plug-In . SVG Version: 6.00 Build 0)  -->
<svg version="1.1" id="Layer_1" xmlns="http://www.w3.org/2000/svg" xmlns:xlink="http://www.w3.org/1999/xlink" x="0px" y="0px"
	 viewBox="0 0 300 300" style="enable-background:new 0 0 300 300;" xml:space="preserve">
<style type="text/css">
	.st0{display:none;fill:#4E3C56;}
	.st1{display:none;fill:#475C69;}
	.st2{fill:#6D4A51;}
	.st3{display:none;fill:#735C74;}
	.st4{fill:none;}
	.st5{fill:#FFFFFF;}
	.st6{opacity:0.4;fill:#BBBDBF;}
	.st7{fill:#F1F1F2;}
</style>
<rect x="0.23" y="0.23" class="st0" width="300" height="300"/>
<rect x="0.23" y="0.23" class="st1" width="300" height="300"/>
<rect x="0.23" y="0.23" class="st2" width="300" height="300"/>
<rect x="0.23" y="0.23" class="st3" width="300" height="300"/>
<g>
	<rect x="77.23" y="228.14" class="st4" width="147" height="42.09"/>
	<path class="st5" d="M97.67,260.53c-2.73,0-8.48-0.79-8.48-4.61c0-1.19,1.04-2.13,2.28-2.13c1.44,0,2.58,0.84,2.58,2.33
		c0,0.5-0.3,1.24-0.69,1.54c0.6,0.5,3.12,0.89,4.12,0.89c1.98,0,5.8-0.2,5.8-2.48c0-2.18-3.37-3.22-5.16-3.87
		c-3.77-1.34-8.13-2.48-8.13-7.39c0-4.51,4.66-5.41,8.08-5.41c3.12,0,7.79,1.24,7.79,4.71c0,1.24-0.84,2.03-2.08,2.03
		c-1.34,0-2.33-0.74-2.33-2.18c0-0.35,0.2-0.89,0.4-1.19c-0.3-0.59-1.79-1.39-3.57-1.39c-1.74,0-4.46,0.2-4.46,2.28
		s3.32,3.08,5.01,3.67c3.67,1.29,8.48,2.53,8.48,7.34C107.29,259.29,101.29,260.53,97.67,260.53z"/>
	<path class="st5" d="M131.79,260.53c-1.69,0-3.12-1.24-3.77-2.98c-0.1-0.25-0.4-0.4-0.64-0.4c-0.2,0-0.45,0.1-0.6,0.25
		c-2.13,2.33-3.92,3.12-6.99,3.12c-3.47,0-6.35-1.98-6.35-6.25v-9.08c0-1.69-0.3-2.88-1.79-3.32l-2.53-0.74v-1.24h9.27v13.29
		c0,1.93,0.45,3.87,3.52,3.87c4.96,0,5.75-5.36,5.75-8.18v-8.98h4.96v14.23c0,2.03,0.35,3.22,1.74,3.22c2.03,0,2.83-2.73,3.32-4.41
		l0.55,0.1C137.89,257.55,135.36,260.53,131.79,260.53z"/>
	<path class="st5" d="M148.65,268.96c-3.02,0-6.99-1.24-6.99-4.96c0-1.29,1.04-2.33,2.53-2.33c1.39,0,2.58,0.84,2.58,2.13
		c0,1.14-0.65,1.74-1.09,1.93c0.25,0.64,2.28,1.14,2.98,1.14c5.16,0,6.84-3.17,6.84-7.59v-2.03c0-0.15-0.25-0.2-0.35-0.1
		c-1.39,1.49-3.27,2.38-5.95,2.38c-6.15,0-9.47-3.77-9.47-10.12c0-5.75,3.97-10.02,9.82-10.02c2.38,0,4.81,0.74,6.2,2.58l0.45-2.08
		h4.41v14.98C160.6,264.89,157.48,268.96,148.65,268.96z M155.84,249.57c0-2.63-1.64-7.83-6.35-7.83c-4.07,0-4.76,4.02-4.76,7.09
		c0,3.08,0.94,7.79,5.9,7.79c4.02,0,5.21-3.77,5.21-6.05V249.57z"/>
	<path class="st5" d="M185,260.53c-1.54,0-2.93-1.09-3.47-2.23c-0.1-0.3-0.35-0.4-0.6-0.4c-0.2,0-0.4,0.05-0.59,0.25
		c-1.69,1.74-3.27,2.38-5.75,2.38c-6.4,0-9.52-4.86-9.52-10.81c0-5.7,3.87-10.31,9.77-10.31c2.23,0,4.71,0.69,6.2,2.43l0.4-1.93
		h4.41v14.23c0,2.03,0.35,3.22,1.74,3.22c2.03,0,2.83-2.73,3.32-4.41l0.55,0.1C191.1,257.55,188.57,260.53,185,260.53z
		 M181.08,249.32c0-3.67-2.08-7.59-6.15-7.59c-3.97,0-4.86,4.36-4.86,7.49c0,3.72,1.24,8.48,5.85,8.48c3.27,0,5.16-2.88,5.16-5.9
		V249.32z"/>
	<path class="st5" d="M210.59,247.09c-1.59,0-2.98-0.84-2.98-2.43c0-0.84,0.59-1.69,1.49-1.74c0-0.59-0.89-1.34-2.88-1.34
		c-4.31,0-5.65,7.14-5.65,10.12v8.33h-4.96V245.2c0-1.69-0.3-2.88-1.79-3.32l-2.53-0.74v-1.24h8.78l0.35,2.83
		c1.74-2.63,4.07-3.32,6.6-3.32c2.97,0,6.35,1.14,6.35,4.66C213.37,245.7,212.37,247.09,210.59,247.09z"/>
</g>
<g>
	<ellipse class="st6" cx="151.67" cy="176.72" rx="115.56" ry="4.79"/>
	<path class="st5" d="M45.5,174.97c0,0,5-4.56,7.58-6.63c2.58-2.06,7.22-3.53,8.76-5.37c1.55-1.85,4.79-2.88,5.74-4.94
		c0.96-2.06,11.61-11.19,11.61-11.19s3.21-5.31,5.97-5.83c2.77-0.52,3.3-1.92,9.32-6.9c6.02-4.99,10.56-3.41,12.15-5.98
		c1.59-2.58,3.7-7.22,9.09-10.31c5.39-3.09,1.98-6.7,7.81-9.28c5.83-2.58,3.08-6.19,7.81-7.22c4.72-1.03,16.77-14.45,16.77-14.45
		s7.07-7.93,12.7,1.57c1.18,1.98,4.11,3.61,7.47,7.22c3.36,3.61,11.23,10.21,14.84,16.4c3.61,6.19,8.77,10.86,10.85,13.96
		s4.65,6.73,6.9,8.62c5.52,4.66,11.16,12.83,16.21,14.48c12.07,3.97,18.48,11.57,22.09,13.85c3.61,2.28,8.25,3.83,10.31,6.4
		c2.06,2.58,5.67,6.19,6.7,7.73L45.5,174.97z"/>
	
		<rect x="42.38" y="164" transform="matrix(0.6646 -0.7472 0.7472 0.6646 -108.7111 87.6931)" class="st7" width="1.88" height="1.87"/>
	
		<rect x="47.27" y="159.59" transform="matrix(0.9095 -0.4156 0.4156 0.9095 -62.3584 34.5586)" class="st7" width="1.88" height="1.88"/>
	
		<rect x="224.93" y="147.79" transform="matrix(0.665 -0.7469 0.7469 0.665 -35.405 218.521)" class="st7" width="1.88" height="1.87"/>
	
		<rect x="229.82" y="143.38" transform="matrix(0.9095 -0.4156 0.4156 0.9095 -39.1054 108.9579)" class="st7" width="1.88" height="1.88"/>
	
		<rect x="257.7" y="173.15" transform="matrix(0.999 -0.045 0.045 0.999 -7.5661 11.8054)" class="st7" width="1.88" height="1.87"/>
	
		<rect x="264.26" y="173.57" transform="matrix(0.3616 -0.9324 0.9324 0.3616 6.6123 358.6767)" class="st7" width="1.88" height="1.88"/>
	
		<rect x="254.03" y="162.23" transform="matrix(0.9948 -0.1018 0.1018 0.9948 -15.2911 26.8131)" class="st7" width="1.88" height="1.88"/>
	
		<rect x="52.12" y="160.91" transform="matrix(0.6644 -0.7474 0.7474 0.6644 -103.1561 93.9719)" class="st7" width="1.88" height="1.88"/>
	
		<rect x="45.03" y="169.67" transform="matrix(0.6644 -0.7473 0.7473 0.6644 -112.0759 91.6034)" class="st7" width="1.88" height="1.88"/>
	
		<rect x="260" y="169.67" transform="matrix(0.6643 -0.7475 0.7475 0.6643 -39.9199 252.3331)" class="st7" width="1.88" height="1.88"/>
	
		<rect x="34.88" y="172.23" transform="matrix(0.9095 -0.4156 0.4156 0.9095 -68.7305 30.5517)" class="st7" width="1.88" height="1.88"/>
	
		<rect x="39.74" y="173.56" transform="matrix(0.6644 -0.7474 0.7474 0.6644 -116.7648 88.9604)" class="st7" width="1.88" height="1.88"/>
	
		<rect x="58.84" y="140.99" transform="matrix(0.9973 -0.0733 0.0733 0.9973 -10.247 4.766)" class="st7" width="1.88" height="1.88"/>
</g>
<path class="st7" d="M157.8,98.46c0,0,14.91,12.74,20.5,21.75c5.59,9.01,10.87,21.62,22.36,28.36
	c11.49,6.74,34.48,20.72,34.48,20.72s-17.95,1.06-36.96-7.76c-14.7-6.82-26.88-32.33-36.35-40.39
	C147.24,108.71,148.54,95.7,157.8,98.46z"/>
<g>
</g>
<g>
</g>
<g>
</g>
<g>
</g>
<g>
</g>
<g>
</g>
<g>
</g>
<g>
</g>
<g>
</g>
<g>
</g>
<g>
</g>
<g>
</g>
<g>
</g>
<g>
</g>
<g>
</g>
</svg>
