<?xml version="1.0" encoding="utf-8"?>
<!-- Generator: Adobe Illustrator 23.0.2, SVG Export Plug-In . SVG Version: 6.00 Build 0)  -->
<svg version="1.1" id="Layer_1" xmlns="http://www.w3.org/2000/svg" xmlns:xlink="http://www.w3.org/1999/xlink" x="0px" y="0px"
	 viewBox="0 0 300 300" style="enable-background:new 0 0 300 300;" xml:space="preserve">
<style type="text/css">
	.st0{fill:#4E3C56;}
	.st1{fill:#475C69;}
	.st2{fill:#6D4A51;}
	.st3{display:none;fill:#735C74;}
	.st4{fill:none;}
	.st5{fill:#FFFFFF;}
</style>
<rect x="0.23" y="0.23" class="st0" width="300" height="300"/>
<rect x="0.23" y="0.23" class="st1" width="300" height="300"/>
<rect x="0.23" y="0.23" class="st2" width="300" height="300"/>
<rect x="0.23" y="0.23" class="st3" width="300" height="300"/>
<g>
	<rect x="77.23" y="228.14" class="st4" width="147" height="42.09"/>
	<path class="st5" d="M113.07,277.07c-1.14,1.49-2.93,3.17-5.65,2.48c-0.84-0.25-1.34-0.79-2.03-1.29
		c-1.93-1.39-2.58-3.47-3.07-5.36c-0.25-0.99-0.3-2.03-0.55-3.03c-0.2-0.94,0.05-2.03,1.44-2.28c1.49-0.25,1.98,0.89,2.08,1.64
		c0.2,1.19,0.3,2.43,0.6,3.62c0.3,1.39,1.19,2.43,2.48,3.17c0.4,0.2,0.94,0.15,1.69-0.79c1.34-1.69,1.74-3.72,1.88-6.05
		c0.3-3.77,0.15-7.49-0.55-11.16c-0.15-0.69-0.4-1.44-0.74-2.18c-0.35-0.79-0.74-1.59-1.04-2.38c-0.84-2.08-2.48-3.82-3.82-5.55
		c-1.59-2.03-3.07-4.31-3.77-6.99c-0.15-0.55-0.1-1.09,0-1.59c0.1-0.45,0.2-0.94,0.25-1.39c0.3-1.93,0.5-3.97,0.94-5.85
		c0.3-1.09,0.84-2.63,1.93-3.47c1.04-0.79,2.93-0.5,3.82-0.05c2.18,0.99,3.07,2.98,3.22,5.16c0,0.1,0.05,0.3,0.15,0.54
		c0.1,0.3,0.2,0.64,0.25,0.94c0.1,0.5,0.1,1.04,0,1.49c-0.25,1.04-1.88,1.14-2.38,0.59c-0.3-0.4-0.45-0.79-0.6-1.24
		c-0.3-0.69-0.5-1.39-0.74-2.08c-0.2-0.65-0.45-1.29-0.74-1.83c-0.35-0.64-0.64-0.6-1.14,0.1c-0.5,0.6-0.74,1.29-0.89,2.08
		c-0.15,0.79-0.15,1.64-0.3,2.43c-0.15,1.09-0.25,2.18-0.3,3.27c-0.1,1.14,0.4,2.03,1.09,3.07c0.25,0.35,0.5,0.74,0.74,1.09
		c0.94,1.39,1.98,2.68,2.93,4.02c0.99,1.39,1.98,2.83,2.78,4.46c1.98,4.26,2.58,8.68,2.33,13.24c-0.1,1.54,0.05,3.12-0.1,4.61
		C115.01,272.66,114.66,275.09,113.07,277.07z"/>
	<path class="st5" d="M128.25,259.07c0.2-3.72,0.4-6.45,0.5-9.22c0.05-1.74-0.1-3.52-0.05-5.26c0.05-1.88,0.2-3.82,0.3-5.7
		c0.1-2.63,0.2-5.26,0.25-7.88c0.05-1.04,0.25-2.33,2.03-2.18c1.83,0.15,1.88,1.59,1.83,2.48c-0.2,2.63-0.3,5.21-0.45,7.84
		c-0.2,3.87-0.4,7.74-0.55,11.55c-0.2,4.56-0.35,9.13-0.6,13.69c-0.1,1.83-0.3,3.67-0.55,5.55c-0.2,1.54-0.35,3.07-0.69,4.61
		c-0.3,1.24-0.74,2.48-1.24,3.67c-0.89,2.03-4.41,1.83-5.46,0.3c-1.44-2.18-1.69-4.56-1.98-7.04c-0.45-3.32-0.74-6.65-0.89-9.97
		c-0.1-3.03,0.2-6.1,0.3-9.13c0.05-2.68,0-5.36,0.05-7.98c0-0.84,0.15-1.69,0.15-2.53c0.05-3.12,0.1-6.2,0.15-9.27
		c0-0.35-0.05-0.69-0.05-1.04c0-0.45-0.05-0.89,0-1.34c0-0.1,0-0.2,0-0.3c0-0.15,0-0.4,0.1-0.64c0.15-0.54,0.64-1.14,1.54-1.14
		c1.54,0,1.74,1.34,1.74,2.08c0,4.36-0.1,8.73-0.15,13.09c0,2.43,0,4.86-0.05,7.29c-0.05,3.67-0.35,7.39-0.15,11.06
		c0.25,3.92,0.35,7.94,1.39,11.75c0.15,0.5,0.15,0.99,0.25,1.49c0.05,0.2,0.05,0.35,0.1,0.5c0.25-0.74,0.45-1.44,0.69-2.18
		c0.3-0.89,0.5-1.83,0.65-2.83c0.45-3.47,0.64-6.99,0.94-10.51c0.05-0.25,0.05-0.54,0.05-0.79H128.25z"/>
	<path class="st5" d="M149.67,275.09c-0.2,1.04-0.65,2.03-1.19,2.88c-1.64,2.53-5.01,2.13-6.79-0.15c-0.64-0.79-0.94-1.79-1.14-2.63
		c-0.35-1.44-0.4-2.93-0.79-4.36c-0.79-2.63-0.79-5.36-0.99-8.08c-0.25-3.22,0-6.55,0.15-9.82c0.1-3.07,0.3-6.15,0.64-9.22
		c0.3-2.98,0.84-5.9,1.44-8.83c0.35-1.54,0.99-2.98,1.54-4.41c0.79-2.23,4.76-3.12,6.55-1.54c1.09,0.59,3.72,3.07,3.12,4.46
		c-0.2,0.4-0.54,0.69-0.94,0.79c-0.99,0.35-1.74-0.2-2.08-0.5c-0.2-0.2-0.35-0.35-0.5-0.5c-0.1-0.1-0.15-0.15-0.15-0.15
		c-0.3-0.1-0.55-0.3-0.69-0.4c-0.15-0.1-0.25-0.2-0.4-0.3c-1.14-0.69-1.64-0.55-1.98,0.79c-0.74,2.83-1.39,5.6-1.93,8.48
		c-0.35,1.88-0.5,3.82-0.64,5.75c-0.25,2.58-0.5,5.16-0.6,7.74c-0.1,1.93,0.2,3.82,0.1,5.75c-0.15,3.62,0.45,7.19,1.09,10.76
		c0.2,1.24,0.69,2.48,1.29,3.77c0.1,0.2,0.35,0.5,0.45,0.5s0.35-0.1,0.45-0.5c0.74-3.32,1.64-6.65,2.23-9.97
		c0.4-2.28,0.45-4.61,0.65-7.04c-0.79,0-1.49,0-2.18-0.15c-0.64-0.1-2.23-1.04-2.18-1.79c0.1-1.09,0.79-2.43,2.58-2.18
		c1.29,0.2,2.53,0.15,3.77,0.4c0.79,0.15,1.84,1.24,1.79,2.18c-0.2,2.88-0.45,5.8-0.84,8.63
		C150.96,268.69,150.31,271.91,149.67,275.09z"/>
	<path class="st5" d="M172.53,279.15c-0.2,0.15-0.4,0.25-1.39,0.94c-0.64-0.99-0.79-1.14-0.89-1.29c-0.15-0.15-0.4-0.5-0.45-0.99
		c-0.15-1.64-0.2-3.27-0.4-4.91c-0.3-2.98-0.69-5.95-1.09-8.88c0-0.05-0.1-0.05-0.15-0.1c-2.33-0.59-4.56-0.89-6.84-0.4
		c-0.05,0.79-0.15,1.64-0.2,2.48c-0.1,2.53-0.2,5.01-0.25,7.54c-0.05,1.24,0,2.48-0.05,3.77c-0.05,1.09-0.69,2.53-3.42,1.88
		c0-2.18-0.05-3.57,0-4.96c0.1-3.37,0.2-6.79,0.45-10.17c0.2-2.58,0.6-5.11,0.89-7.69c0.4-3.32,0.69-6.6,1.09-9.92
		c0.4-3.02,0.89-6.05,1.34-9.08c0.15-1.19,0.2-2.43,0.35-3.67c0.2-1.29,0.4-2.58,0.74-3.82c0.15-0.5,0.59-0.84,0.79-0.99
		c0.2-0.15,0.45-0.35,1.69-1.39c0.74,1.49,0.94,1.83,1.14,2.18c0.2,0.35,0.45,0.79,0.5,1.29c0.54,2.83,0.94,5.65,1.34,8.48
		c0.35,2.78,0.59,5.55,1.04,8.33c0.5,3.07,1.19,6.1,1.74,9.17c0.59,3.42,1.19,6.89,1.69,10.32c0.35,2.38,0.6,4.71,0.89,7.04
		c0.15,0.94,0.3,1.83,0.45,2.73c0,0.15,0.05,0.35,0.05,0.55c0,0.15,0,0.64-0.4,0.99C172.98,278.86,172.73,279.05,172.53,279.15z
		 M161.57,260.01l6.15,0.3c-1.69-7.19-2.13-14.58-3.42-21.82L161.57,260.01z"/>
	<path class="st5" d="M188.89,277.86c-0.25-1.69-0.45-3.42-0.89-5.11c-0.79-3.17-1.74-6.35-2.58-9.47c-0.94-3.32-1.83-6.6-2.78-9.87
		c-0.1-0.3-0.2-0.6-0.3-0.84c0,1.24,0,2.48,0,3.72c0,2.23,0,4.46,0.05,6.7c0,0.99,0.2,1.98,0.2,2.97c0,1.54-0.2,3.08-0.15,4.66
		c0.05,2.23,0.25,4.41,0.45,6.65c0.05,0.2,0.05,0.4,0.05,0.59s0,0.45-0.1,0.69c-0.25,0.74-0.94,1.04-1.64,1.04
		c-1.44,0-2.13-0.89-2.13-2.23c0.05-2.63-0.05-5.26-0.15-7.93c-0.05-2.38-0.15-4.71-0.15-7.09c0-3.02,0.15-6,0.15-9.03
		c0-2.93-0.2-5.85-0.15-8.78c0-1.83,0.35-3.62,0.45-5.41c0.1-2.98,0.1-5.95,0.2-8.98c0-0.4,0.15-0.69,0.25-0.89
		c0.05-0.2,0.15-0.35,0.6-1.49c1.34,0.59,1.69,0.79,2.03,0.94c0.3,0.2,0.59,0.4,0.89,0.59c1.04,0.84,2.13,1.69,3.22,2.53
		c0.79,0.64,1.24,1.39,1.54,2.18c0.3,0.69,0.45,1.44,0.64,2.18c0.99,4.02-0.89,7.09-3.12,9.62c-0.2,0.25-0.45,0.4-0.6,0.5l-0.4,0.2
		c0.35,1.24,0.74,2.48,1.09,3.67c0.89,3.22,1.88,6.45,2.78,9.67c0.84,3.13,1.54,6.3,2.33,9.42c0.59,2.38,1.19,4.71,1.79,7.04
		c0.1,0.35,0.1,0.69,0.15,0.99c0.15,0.65,0.3,2.18-1.44,2.38C189.79,279.85,189.04,279,188.89,277.86z M182.5,243.35
		c1.24-0.99,2.53-2.93,2.63-4.26c0.25-2.83-0.74-4.46-2.23-5.6L182.5,243.35z"/>
</g>
<g>
</g>
<g>
</g>
<g>
</g>
<g>
</g>
<g>
</g>
<g>
</g>
<g>
</g>
<g>
</g>
<g>
</g>
<g>
</g>
<g>
</g>
<g>
</g>
<g>
</g>
<g>
</g>
<g>
</g>
</svg>
